<svg xmlns="http://www.w3.org/2000/svg" width="48" height="48" viewBox="0 0 48 48" fill="none">
  <!-- Shield outline -->
  <path d="M24 4L6 12v12c0 11.1 7.68 21.48 18 24 10.32-2.52 18-12.9 18-24V12L24 4z" fill="#e8f5e9" stroke="#2d7d3a" stroke-width="2"/>
  <!-- Inner leaf -->
  <path d="M24 38V24M24 24c0-6 5-10 11-10-1 6-5 11-11 10zM24 24c0-6-5-10-11-10 1 6 5 11 11 10z" stroke="#4CAF50" stroke-width="2.5" stroke-linecap="round" stroke-linejoin="round" fill="#81C784" fill-opacity="0.4"/>
  <!-- Sun -->
  <circle cx="24" cy="12" r="3" fill="#FFB300"/>
  <path d="M24 7v1M28.5 12h1M19.5 12h-1M27.5 8.5l.7-.7M20.5 8.5l-.7-.7" stroke="#FFB300" stroke-width="1.2" stroke-linecap="round"/>
  <!-- Circuit element -->
  <circle cx="34" cy="22" r="1.5" fill="#2d7d3a"/>
  <path d="M34 24v4M34 28h-3" stroke="#2d7d3a" stroke-width="1.2" stroke-linecap="round"/>
  <circle cx="31" cy="28" r="1" fill="#2d7d3a"/>
</svg>